<svg xmlns="http://www.w3.org/2000/svg" xmlns:xlink="http://www.w3.org/1999/xlink" version="1.1" x="0px" y="0px" style="enable-background:new 0 0 56.966 56.966;" xml:space="preserve">
    <defs>           

        <symbol viewBox="0 0 212.982 212.982" id="ic-close-icon2">
            <path style="fill-rule:evenodd;clip-rule:evenodd;" d="M131.804,106.491l75.936-75.936c6.99-6.99,6.99-18.323,0-25.312   c-6.99-6.99-18.322-6.99-25.312,0l-75.937,75.937L30.554,5.242c-6.99-6.99-18.322-6.99-25.312,0c-6.989,6.99-6.989,18.323,0,25.312   l75.937,75.936L5.242,182.427c-6.989,6.99-6.989,18.323,0,25.312c6.99,6.99,18.322,6.99,25.312,0l75.937-75.937l75.937,75.937   c6.989,6.99,18.322,6.99,25.312,0c6.99-6.99,6.99-18.322,0-25.312L131.804,106.491z"/>
        </symbol>

        <symbol id="projeto" viewBox="0 0 628.549 628.549">
			<path d="M570.272,0H58.284C30.672,0,8.282,22.375,8.282,49.979v349.757c0,27.604,22.39,49.972,50.002,49.972H282.75v128.869     h-37.505c-13.81,0-25.001,11.191-25.001,25.001c0,13.795,11.191,24.971,25.001,24.971H370.25     c13.81,0,25.001-11.184,25.001-24.971c0-13.81-11.191-25.001-25.001-25.001h-37.506V449.708h237.521     c27.62,0,50.003-22.367,50.003-49.972V49.979C620.282,22.375,597.892,0,570.272,0z M559.383,374.019     c0,13.787-11.191,24.979-25.002,24.979H94.898c-13.81,0-25.001-11.199-25.001-24.979V74.21c0-13.794,11.199-24.978,25.001-24.978     h439.491c13.81,0,25.001,11.191,25.001,24.978v299.808H559.383z M480.682,112.433c-16.104,0-29.167,13.055-29.167,29.151     c0,3.555,0.732,6.913,1.895,10.067l-73.365,105.77c-1.449-0.242-2.913-0.445-4.43-0.445c-1.57,0-3.095,0.204-4.589,0.46     l-71.003-88.322c0.377-1.887,0.588-3.833,0.588-5.826c0-16.255-13.191-29.446-29.468-29.446     c-16.27,0-29.468,13.183-29.468,29.446c0,5.229,1.479,10.067,3.871,14.323l-89.447,124.869c-2.06-0.528-4.173-0.891-6.399-0.891     c-14.3,0-25.892,11.584-25.892,25.892c0,14.263,11.591,25.854,25.892,25.854s25.899-11.591,25.899-25.854     c0-3.667-0.785-7.146-2.158-10.309l89.975-125.586c2.476,0.672,5.034,1.155,7.728,1.155c5.614,0,10.807-1.653,15.274-4.377     l66.045,82.157c-2.249,3.917-3.63,8.391-3.63,13.229c0,14.791,11.991,26.767,26.789,26.767c14.791,0,26.79-11.976,26.79-26.767     c0-3.977-0.921-7.72-2.482-11.116l71.758-103.46c2.853,0.928,5.841,1.562,9.003,1.562c16.111,0,29.166-13.063,29.166-29.144     C509.856,125.488,496.793,112.433,480.682,112.433z"></path>
		</symbol>

		<symbol id="tarefa" viewBox="0 0 485 485">
			<path d="M483.8,46.25H181.6c-0.6,0-1.2,0.5-1.2,1.2v28.3c0,0.6,0.5,1.2,1.2,1.2h302.2c0.6,0,1.2-0.5,1.2-1.2v-28.3    C485,46.75,484.5,46.25,483.8,46.25z"></path>
			<circle cx="71.5" cy="253.35" r="37.9"></circle>
			<circle cx="71.5" cy="419.55" r="38.1"></circle>
			<path d="M181.6,128.15h142.8c0.6,0,1.2-0.5,1.2-1.2v-28.3c0-0.6-0.5-1.2-1.2-1.2H181.6c-0.6,0-1.2,0.5-1.2,1.2v28.3    C180.5,127.65,181,128.15,181.6,128.15z"></path>
			<path d="M483.8,212.45H181.6c-0.6,0-1.2,0.5-1.2,1.2v28.3c0,0.6,0.5,1.2,1.2,1.2h302.2c0.6,0,1.2-0.5,1.2-1.2v-28.3    C485,212.95,484.5,212.45,483.8,212.45z"></path>
			<path d="M181.6,294.35h142.8c0.6,0,1.2-0.5,1.2-1.2v-28.3c0-0.6-0.5-1.2-1.2-1.2H181.6c-0.6,0-1.2,0.5-1.2,1.2v28.3    C180.5,293.75,181,294.35,181.6,294.35z"></path>
			<path d="M483.8,378.55H181.6c-0.6,0-1.2,0.5-1.2,1.2v28.3c0,0.6,0.5,1.2,1.2,1.2h302.2c0.6,0,1.2-0.5,1.2-1.2v-28.3    C485,379.05,484.5,378.55,483.8,378.55z"></path>
			<path d="M324.4,429.85H181.6c-0.6,0-1.2,0.5-1.2,1.2v28.3c0,0.6,0.5,1.2,1.2,1.2h142.8c0.6,0,1.2-0.5,1.2-1.2v-28.3    C325.6,430.35,325.1,429.85,324.4,429.85z"></path>
			<polygon points="53.4,86.55 27.3,60.25 0,87.45 26.2,113.65 53.3,140.95 80.5,113.85 143,51.75 115.9,24.45   "></polygon>	
		</symbol>

		<symbol id="pessoas" viewBox="0 0 512 512">
			<path d="M451.72,237.26c-17.422-8.71-50.087-8.811-51.469-8.811c-4.142,0-7.5,3.358-7.5,7.5c0,4.142,3.358,7.5,7.5,7.5    c8.429,0.001,32.902,1.299,44.761,7.228c1.077,0.539,2.221,0.793,3.348,0.793c2.751,0,5.4-1.52,6.714-4.147    C456.927,243.618,455.425,239.113,451.72,237.26z"></path>	
			<path d="M489.112,344.041l-30.975-8.85c-1.337-0.382-2.271-1.62-2.271-3.011v-10.339c2.52-1.746,4.924-3.7,7.171-5.881    c10.89-10.568,16.887-24.743,16.887-39.915v-14.267l2.995-5.989c3.287-6.575,5.024-13.936,5.024-21.286v-38.65    c0-4.142-3.358-7.5-7.5-7.5H408.27c-26.244,0-47.596,21.352-47.596,47.596v0.447c0,6.112,1.445,12.233,4.178,17.699l3.841,7.682    v12.25c0,19.414,9.567,36.833,24.058,47.315l0.002,10.836c0,1.671,0,2.363-6.193,4.133l-15.114,4.318l-43.721-15.898    c0.157-2.063-0.539-4.161-2.044-5.742l-13.971-14.678v-24.64c1.477-1.217,2.933-2.467,4.344-3.789    c17.625-16.52,27.733-39.844,27.733-63.991v-19.678c5.322-11.581,8.019-23.836,8.019-36.457v-80.19c0-4.142-3.358-7.5-7.5-7.5    H232.037c-39.51,0-71.653,32.144-71.653,71.653v16.039c0,12.621,2.697,24.876,8.019,36.457v16.931    c0,28.036,12.466,53.294,32.077,69.946v25.22l-13.971,14.678c-1.505,1.581-2.201,3.679-2.044,5.742l-46.145,16.779    c-3.344,1.216-6.451,2.863-9.272,4.858l-7.246-3.623c21.57-9.389,28.403-22.594,28.731-23.25c1.056-2.111,1.056-4.597,0-6.708    c-5.407-10.814-6.062-30.635-6.588-46.561c-0.175-5.302-0.341-10.311-0.658-14.771c-2.557-35.974-29.905-63.103-63.615-63.103    s-61.059,27.128-63.615,63.103c-0.317,4.461-0.483,9.47-0.658,14.773c-0.526,15.925-1.182,35.744-6.588,46.558    c-1.056,2.111-1.056,4.597,0,6.708c0.328,0.656,7.147,13.834,28.76,23.234l-20.127,10.063C6.684,358.176,0,368.991,0,381.02    v55.409c0,4.142,3.358,7.5,7.5,7.5s7.5-3.358,7.5-7.5V381.02c0-6.312,3.507-11.987,9.152-14.81l25.063-12.531l8.718,8.285    c6.096,5.793,13.916,8.688,21.739,8.688c7.821,0,15.645-2.897,21.739-8.688l8.717-8.284l8.172,4.086    c-3.848,6.157-6.032,13.377-6.032,20.94v57.725c0,4.142,3.358,7.5,7.5,7.5c4.142,0,7.5-3.358,7.5-7.5v-57.725    c0-10.296,6.501-19.578,16.178-23.097l48.652-17.691l20.253,30.381c2.589,3.884,6.738,6.375,11.383,6.835    c0.518,0.051,1.033,0.076,1.547,0.076c4.098,0,8.023-1.613,10.957-4.546l12.356-12.356v78.124c0,4.142,3.358,7.5,7.5,7.5    c4.142,0,7.5-3.358,7.5-7.5v-78.124l12.356,12.356c2.933,2.934,6.858,4.547,10.957,4.547c0.513,0,1.029-0.025,1.546-0.076    c4.646-0.46,8.795-2.951,11.384-6.835l20.254-30.38l48.651,17.691c9.676,3.519,16.178,12.801,16.178,23.097v57.725    c0,4.142,3.358,7.5,7.5,7.5c4.142,0,7.5-3.358,7.5-7.5v-57.725c0-10.428-4.143-20.208-11.093-27.441l1.853-0.529    c1.869-0.534,4.419-1.265,6.979-2.52l19.149,19.149v69.066c0,4.142,3.358,7.5,7.5,7.5c4.142,0,7.5-3.358,7.5-7.5v-69.066    l19.016-19.016c1.011,0.514,2.073,0.948,3.191,1.267l30.976,8.85c7.07,2.02,12.009,8.567,12.009,15.921v62.044    c0,4.142,3.358,7.5,7.5,7.5c4.142,0,7.5-3.358,7.5-7.5v-62.044C512,360.371,502.588,347.892,489.112,344.041z M48.115,330.794    c-14.029-5.048-21.066-11.778-24.07-15.453c2.048-5.354,3.376-11.486,4.275-17.959c4.136,9.917,11.063,18.383,19.795,24.423    V330.794z M91.08,351.092c-6.397,6.078-16.418,6.077-22.813-0.001l-6.975-6.628c1.177-2.205,1.824-4.705,1.824-7.324v-7.994    c5.232,1.635,10.794,2.517,16.558,2.517c5.757,0,11.316-0.886,16.557-2.512l-0.001,7.988c0,2.62,0.646,5.121,1.824,7.327    L91.08,351.092z M79.676,316.662c-22.396,0-40.615-18.22-40.615-40.615c0-4.142-3.358-7.5-7.5-7.5c-0.42,0-0.83,0.043-1.231,0.11    c0.022-0.645,0.043-1.291,0.065-1.93c0.167-5.157,0.328-10.028,0.625-14.206c0.958-13.476,6.343-25.894,15.163-34.968    c8.899-9.156,20.793-14.198,33.491-14.198s24.591,5.042,33.491,14.198c8.82,9.074,14.205,21.492,15.163,34.968    c0.296,4.177,0.458,9.047,0.628,14.203c0.015,0.443,0.03,0.892,0.045,1.338c-8.16-12.572-20.762-21.837-37.045-27.069    c-15.043-4.833-27.981-4.534-28.527-4.52c-1.964,0.055-3.828,0.877-5.191,2.291l-13.532,14.034    c-2.875,2.982-2.789,7.73,0.193,10.605s7.73,2.788,10.605-0.193l11.26-11.677c9.697,0.474,40.894,4.102,53.027,30.819    C116.738,302.04,99.816,316.662,79.676,316.662z M111.229,330.819l0.001-8.945c8.725-6.007,15.662-14.457,19.801-24.449    c0.899,6.458,2.226,12.576,4.27,17.918C132.314,318.983,125.244,325.773,111.229,330.819z M183.403,209.145v-18.608    c0-1.129-0.255-2.244-0.746-3.261c-4.826-9.994-7.273-20.598-7.273-31.518V139.72c0-31.239,25.415-56.653,56.653-56.653h104.769    v72.692c0,10.92-2.447,21.524-7.273,31.518c-0.491,1.017-0.746,2.132-0.746,3.261v21.355c0,20.311-8.165,39.15-22.991,53.047    c-1.851,1.734-3.772,3.36-5.758,4.875c-0.044,0.03-0.086,0.063-0.129,0.094c-13.889,10.545-30.901,15.67-48.667,14.519    C213.201,281.965,183.403,248.897,183.403,209.145z M225.632,360.056c-0.052,0.052-0.173,0.175-0.418,0.149    c-0.244-0.024-0.34-0.167-0.381-0.229l-23.325-34.988l7.506-7.887l35.385,24.187L225.632,360.056z M256.095,331.113    l-40.615-27.762v-14c10.509,5.681,22.276,9.234,34.791,10.044c1.977,0.128,3.942,0.191,5.901,0.191    c14.341,0,28.143-3.428,40.538-9.935v13.7L256.095,331.113z M287.357,359.978c-0.041,0.062-0.137,0.205-0.381,0.229    c-0.245,0.031-0.365-0.098-0.418-0.149l-18.767-18.767l35.385-24.188l7.507,7.887L287.357,359.978z M424.308,353.65l-17.02-17.019    c0.297-1.349,0.465-2.826,0.464-4.455l-0.001-3.165c4.723,1.55,9.701,2.47,14.852,2.624c0.578,0.018,1.151,0.026,1.727,0.026    c5.692,0,11.248-0.86,16.536-2.501v3.02c0,1.496,0.188,2.962,0.542,4.371L424.308,353.65z M452.591,305.196    c-7.949,7.714-18.45,11.788-29.537,11.446c-21.704-0.651-39.361-19.768-39.361-42.613v-14.021c0-1.165-0.271-2.313-0.792-3.354    l-4.633-9.266c-1.697-3.395-2.594-7.195-2.594-10.991v-0.447c0-17.974,14.623-32.596,32.596-32.596h64.673v31.15    c0,5.034-1.19,10.075-3.441,14.578l-3.786,7.572c-0.521,1.042-0.792,2.189-0.792,3.354v16.038    C464.924,287.126,460.544,297.478,452.591,305.196z"></path>	
			<path d="M472.423,380.814c-4.142,0-7.5,3.358-7.5,7.5v48.115c0,4.142,3.358,7.5,7.5,7.5c4.142,0,7.5-3.358,7.5-7.5v-48.115    C479.923,384.173,476.565,380.814,472.423,380.814z"></path>	
			<path d="M39.577,390.728c-4.142,0-7.5,3.358-7.5,7.5v38.201c0,4.142,3.358,7.5,7.5,7.5c4.142,0,7.5-3.358,7.5-7.5v-38.201    C47.077,394.087,43.719,390.728,39.577,390.728z"></path><path d="M317.532,158.475c-28.366-28.366-87.715-22.943-111.917-19.295c-7.623,1.149-13.155,7.6-13.155,15.339v17.278    c0,4.142,3.358,7.5,7.5,7.5c4.142,0,7.5-3.358,7.5-7.5v-17.279c0-0.255,0.168-0.473,0.392-0.507    c9.667-1.457,28.85-3.705,48.725-2.38c23.388,1.557,40.328,7.428,50.349,17.45c2.929,2.929,7.678,2.929,10.606,0    C320.461,166.152,320.461,161.403,317.532,158.475z"></path><path d="M167.884,396.853c-4.142,0-7.5,3.358-7.5,7.5v32.077c0,4.142,3.358,7.5,7.5,7.5c4.142,0,7.5-3.358,7.5-7.5v-32.077    C175.384,400.212,172.026,396.853,167.884,396.853z"></path><path d="M344.306,396.853c-4.142,0-7.5,3.358-7.5,7.5v32.077c0,4.142,3.358,7.5,7.5,7.5c4.142,0,7.5-3.358,7.5-7.5v-32.077    C351.806,400.212,348.448,396.853,344.306,396.853z"></path>
		</symbol>

		<symbol id="tempo" viewBox="0 0 203.543 203.543">
		    <path d="m194.139,11.918h-39.315v-5.918c0-3.313-2.687-6-6-6s-6,2.687-6,6v5.918h-35.053v-5.918c0-3.313-2.687-6-6-6s-6,2.687-6,6v5.918h-33.563v-5.918c0-3.313-2.687-6-6-6s-6,2.687-6,6v5.918h-40.804c-3.313,0-6,2.687-6,6v135.572c0,3.313 2.687,6 6,6h36.826c5.901,25.214 28.555,44.053 55.541,44.053s49.64-18.84 55.541-44.053h36.826c3.313,0 6-2.687 6-6v-135.572c0.001-3.313-2.685-6-5.999-6zm-143.931,12v5.422c0,3.313 2.687,6 6,6s6-2.687 6-6v-5.422h33.563v5.422c0,3.313 2.687,6 6,6s6-2.687 6-6v-5.422h35.053v5.422c0,3.313 2.687,6 6,6s6-2.687 6-6v-5.422h33.315v24.536h-172.735v-24.536h34.804zm51.563,167.625c-24.842,0-45.053-20.211-45.053-45.053s20.211-45.053 45.053-45.053 45.053,20.21 45.053,45.053-20.21,45.053-45.053,45.053zm57.028-44.053c0.006-0.334 0.025-0.665 0.025-1 0-31.459-25.594-57.053-57.053-57.053s-57.053,25.594-57.053,57.053c0,0.335 0.02,0.666 0.025,1h-29.34v-87.035h172.735v87.035h-29.339z"></path>
		    <path d="m107.771,148.004v-29.026c0-3.313-2.687-6-6-6s-6,2.687-6,6v31.512c0,1.591 0.632,3.117 1.757,4.243l13.79,13.791c1.172,1.171 2.707,1.757 4.243,1.757 1.535,0 3.071-0.586 4.243-1.757 2.343-2.343 2.343-6.142 0-8.485l-12.033-12.035z"></path>
		</symbol>

		<symbol id="financeiro" viewBox="0 0 512 512">
			<path d="M498.791,161.127c-17.545-17.546-46.094-17.545-63.645,0.004c-5.398,5.403-39.863,39.896-45.128,45.166V87.426    c0-12.02-4.681-23.32-13.181-31.819L334.412,13.18C325.913,4.68,314.612,0,302.592,0H45.018c-24.813,0-45,20.187-45,45v422    c0,24.813,20.187,45,45,45h300c24.813,0,45-20.187,45-45V333.631L498.79,224.767C516.377,207.181,516.381,178.715,498.791,161.127    z M300.019,30c2.834,0,8.295-0.491,13.18,4.393l42.426,42.427c4.76,4.761,4.394,9.978,4.394,13.18h-60V30z M360.018,467    c0,8.271-6.728,15-15,15h-300c-8.271,0-15-6.729-15-15V45c0-8.271,6.729-15,15-15h225v75c0,8.284,6.716,15,15,15h75v116.323    c0,0-44.254,44.292-44.256,44.293l-21.203,21.204c-1.646,1.646-2.888,3.654-3.624,5.863l-21.214,63.64    c-1.797,5.39-0.394,11.333,3.624,15.35c4.023,4.023,9.968,5.419,15.35,3.624l63.64-21.213c2.209-0.736,4.217-1.977,5.863-3.624    l1.82-1.82V467z M326.378,312.427l21.213,21.213l-8.103,8.103l-31.819,10.606l10.606-31.82L326.378,312.427z M368.8,312.422    l-21.213-21.213c11.296-11.305,61.465-61.517,72.105-72.166l21.213,21.213L368.8,312.422z M477.573,203.558l-15.463,15.476    l-21.213-21.213l15.468-15.481c5.852-5.849,15.366-5.848,21.214,0C483.426,188.19,483.457,197.673,477.573,203.558z"></path>
			<path d="M285.018,150h-210c-8.284,0-15,6.716-15,15s6.716,15,15,15h210c8.284,0,15-6.716,15-15S293.302,150,285.018,150z"></path>
			<path d="M225.018,210h-150c-8.284,0-15,6.716-15,15s6.716,15,15,15h150c8.284,0,15-6.716,15-15S233.302,210,225.018,210z"></path>
			<path d="M225.018,270h-150c-8.284,0-15,6.716-15,15s6.716,15,15,15h150c8.284,0,15-6.716,15-15S233.302,270,225.018,270z"></path>
			<path d="M225.018,330h-150c-8.284,0-15,6.716-15,15s6.716,15,15,15h150c8.284,0,15-6.716,15-15S233.302,330,225.018,330z"></path>
			<path d="M285.018,422h-90c-8.284,0-15,6.716-15,15s6.716,15,15,15h90c8.284,0,15-6.716,15-15S293.302,422,285.018,422z"></path>
		</symbol>


		<?xml version="1.0" encoding="utf-8"?>
<!-- Generator: Adobe Illustrator 22.0.1, SVG Export Plug-In . SVG Version: 6.00 Build 0)  -->
<symbol id="logo" viewBox="0 0 427 157.5">
<style type="text/css">
	.st0{opacity:0.93;fill:#49A5F5;}
	.st1{fill:#FFFFFF;}
</style>
<image style="display:none;overflow:visible;opacity:0.93;" width="462" height="361" xlink:href="67DCFA95.jpg"  transform="matrix(0.9999 0 0 0.9999 -25.9711 -5.9774)">
</image>
<circle class="st0" cx="201.5" cy="21" r="16"/>
<path class="st0" d="M145.3,57.3c0,0,13.5-16.3,61-15.8c38,0,46.5,13.8,46.5,13.8s-32.8,0-32.8,17.5s6.5,27.5,6.5,27.5
	s-6.3-7-16.3-6.5C192.8,94,173,134.8,165,135c0,0,29-48.8,27-65.3S173.3,52.3,145.3,57.3z"/>
<g>
	<path class="st1" d="M43.8,123.6c-4.2,2.4-10.9,4.4-18.3,4.4c-14.7,0-21.1-10-21.1-22.3c0-16.7,12.4-35.6,30.3-35.6
		c10.6,0,16.3,6.3,16.3,14.2c0,14.6-16.4,18.4-36.9,18c-0.5,2.4-0.1,7.6,1.1,10.6c2.2,5,6.6,7.5,12.3,7.5c6.6,0,11.5-2,14.9-3.8
		L43.8,123.6z M33.2,77.5c-9.1,0-15.9,8.8-18.2,17.5c15,0.2,26.7-1.8,26.7-10.5C41.7,80,38.2,77.5,33.2,77.5z"/>
	<path class="st1" d="M85.6,126.8c0-3.3,0.5-8.6,1.2-14.3h-0.2c-6,11.5-13.7,15.6-21.5,15.6c-9.8,0-16-7.8-16-18.3
		c0-19.3,14.2-39.7,38.4-39.7c5.3,0,11.1,0.9,15,2.1l-5.7,28.9c-1.8,9.7-2.6,19.6-2.3,25.7H85.6z M91.7,78.4
		c-1.3-0.4-3.4-0.8-6.6-0.8C70.8,77.6,59.1,92.6,59,108c0,6.2,2.1,12.2,9.5,12.2c8,0,17.3-10.3,20.1-25.1L91.7,78.4z"/>
	<path class="st1" d="M102.5,117.2c2.6,1.6,7.4,3.5,11.9,3.5c6.4,0,10.6-4.1,10.6-9.1c0-4.3-2-7-7.7-10.2c-6.4-3.6-10-8.5-10-14.1
		c0-9.7,8.4-17.1,20.1-17.1c5,0,9.5,1.3,11.5,2.8l-2.7,7.2c-1.9-1.1-5.4-2.5-9.6-2.5c-5.8,0-9.9,3.6-9.9,8.3c0,4.1,2.7,6.6,7.6,9.3
		c6.2,3.5,10.4,8.3,10.4,14.6c0,11.7-9.5,18.3-21.2,18.3c-6,0-11.3-1.9-13.8-3.8L102.5,117.2z"/>
	<path class="st1" d="M150,71.3l5.5,29.8c1.2,6.4,2,10.5,2.5,14.6h0.3c1.5-3.6,3.1-7.4,5.9-13.6l14.2-30.9h10.1l-20.8,42.2
		c-6,12-11.6,21.8-19.1,29.2c-6.2,6.2-13,8.9-16.1,9.6l-2.3-8.2c2.4-0.8,6.4-2.4,10.2-5.3c3.8-2.9,7.8-7.4,10.7-12.8
		c0.5-0.9,0.4-1.6,0.3-2.5l-11.1-52.1H150z"/>
</g>
<g>
	<path class="st1" d="M255.6,56.4l-2.9,14.9H266l-1.5,7.4h-13.3l-5.1,27c-0.6,3.1-1.1,6-1.1,8.9c0,3.3,1.6,5.4,5.3,5.4
		c1.7,0,3.2-0.1,4.5-0.4l-0.5,7.5c-1.7,0.6-4.6,1-7.4,1c-8.4,0-11.7-5.1-11.7-10.8c0-3.2,0.4-6.4,1.2-10.4l5.4-28.1H234l1.4-7.4h8
		l2.3-12.5L255.6,56.4z"/>
	<path class="st1" d="M312.6,93.1c0,17.1-12.2,34.9-30.8,34.9c-13.9,0-21.7-10.3-21.7-22.8c0-18.3,12.7-35.2,30.8-35.2
		C305.8,70.1,312.6,81.4,312.6,93.1z M269.9,104.9c0,9,5,15.6,13.2,15.6c11.2,0,19.7-14.5,19.7-27.4c0-6.5-3-15.5-12.9-15.5
		C277.8,77.6,269.9,92.2,269.9,104.9z"/>
	<path class="st1" d="M366,93.1c0,17.1-12.2,34.9-30.8,34.9c-13.9,0-21.7-10.3-21.7-22.8c0-18.3,12.7-35.2,30.8-35.2
		C359.2,70.1,366,81.4,366,93.1z M323.3,104.9c0,9,5,15.6,13.2,15.6c11.2,0,19.7-14.5,19.7-27.4c0-6.5-3-15.5-12.9-15.5
		C331.2,77.6,323.3,92.2,323.3,104.9z"/>
	<path class="st1" d="M365.8,126.8l15.5-81.5h9.5l-15.6,81.5H365.8z"/>
	<path class="st1" d="M385.6,117.2c2.6,1.6,7.4,3.5,11.9,3.5c6.4,0,10.6-4.1,10.6-9.1c0-4.3-1.9-7-7.7-10.2c-6.4-3.6-10-8.5-10-14.1
		c0-9.7,8.4-17.1,20.1-17.1c5,0,9.5,1.3,11.5,2.8l-2.7,7.2c-1.9-1.1-5.4-2.5-9.6-2.5c-5.8,0-9.9,3.6-9.9,8.3c0,4.1,2.7,6.6,7.6,9.3
		c6.2,3.5,10.4,8.3,10.4,14.6c0,11.7-9.5,18.3-21.2,18.3c-6,0-11.3-1.9-13.8-3.8L385.6,117.2z"/>
</g>
</symbol>


    </defs>
</svg>