<svg xmlns="http://www.w3.org/2000/svg" xmlns:xlink="http://www.w3.org/1999/xlink" version="1.1" x="0px" y="0px" style="enable-background:new 0 0 56.966 56.966;" xml:space="preserve">
    <defs>           

        <symbol viewBox="0 0 212.982 212.982" id="ic-close-icon2">
            <path style="fill-rule:evenodd;clip-rule:evenodd;" d="M131.804,106.491l75.936-75.936c6.99-6.99,6.99-18.323,0-25.312   c-6.99-6.99-18.322-6.99-25.312,0l-75.937,75.937L30.554,5.242c-6.99-6.99-18.322-6.99-25.312,0c-6.989,6.99-6.989,18.323,0,25.312   l75.937,75.936L5.242,182.427c-6.989,6.99-6.989,18.323,0,25.312c6.99,6.99,18.322,6.99,25.312,0l75.937-75.937l75.937,75.937   c6.989,6.99,18.322,6.99,25.312,0c6.99-6.99,6.99-18.322,0-25.312L131.804,106.491z"/>
        </symbol>

        <symbol id="projeto" viewBox="0 0 628.549 628.549">
			<path d="M570.272,0H58.284C30.672,0,8.282,22.375,8.282,49.979v349.757c0,27.604,22.39,49.972,50.002,49.972H282.75v128.869     h-37.505c-13.81,0-25.001,11.191-25.001,25.001c0,13.795,11.191,24.971,25.001,24.971H370.25     c13.81,0,25.001-11.184,25.001-24.971c0-13.81-11.191-25.001-25.001-25.001h-37.506V449.708h237.521     c27.62,0,50.003-22.367,50.003-49.972V49.979C620.282,22.375,597.892,0,570.272,0z M559.383,374.019     c0,13.787-11.191,24.979-25.002,24.979H94.898c-13.81,0-25.001-11.199-25.001-24.979V74.21c0-13.794,11.199-24.978,25.001-24.978     h439.491c13.81,0,25.001,11.191,25.001,24.978v299.808H559.383z M480.682,112.433c-16.104,0-29.167,13.055-29.167,29.151     c0,3.555,0.732,6.913,1.895,10.067l-73.365,105.77c-1.449-0.242-2.913-0.445-4.43-0.445c-1.57,0-3.095,0.204-4.589,0.46     l-71.003-88.322c0.377-1.887,0.588-3.833,0.588-5.826c0-16.255-13.191-29.446-29.468-29.446     c-16.27,0-29.468,13.183-29.468,29.446c0,5.229,1.479,10.067,3.871,14.323l-89.447,124.869c-2.06-0.528-4.173-0.891-6.399-0.891     c-14.3,0-25.892,11.584-25.892,25.892c0,14.263,11.591,25.854,25.892,25.854s25.899-11.591,25.899-25.854     c0-3.667-0.785-7.146-2.158-10.309l89.975-125.586c2.476,0.672,5.034,1.155,7.728,1.155c5.614,0,10.807-1.653,15.274-4.377     l66.045,82.157c-2.249,3.917-3.63,8.391-3.63,13.229c0,14.791,11.991,26.767,26.789,26.767c14.791,0,26.79-11.976,26.79-26.767     c0-3.977-0.921-7.72-2.482-11.116l71.758-103.46c2.853,0.928,5.841,1.562,9.003,1.562c16.111,0,29.166-13.063,29.166-29.144     C509.856,125.488,496.793,112.433,480.682,112.433z"></path>
		</symbol>

		<symbol id="tarefa" viewBox="0 0 485 485">
			<path d="M483.8,46.25H181.6c-0.6,0-1.2,0.5-1.2,1.2v28.3c0,0.6,0.5,1.2,1.2,1.2h302.2c0.6,0,1.2-0.5,1.2-1.2v-28.3    C485,46.75,484.5,46.25,483.8,46.25z"></path>
			<circle cx="71.5" cy="253.35" r="37.9"></circle>
			<circle cx="71.5" cy="419.55" r="38.1"></circle>
			<path d="M181.6,128.15h142.8c0.6,0,1.2-0.5,1.2-1.2v-28.3c0-0.6-0.5-1.2-1.2-1.2H181.6c-0.6,0-1.2,0.5-1.2,1.2v28.3    C180.5,127.65,181,128.15,181.6,128.15z"></path>
			<path d="M483.8,212.45H181.6c-0.6,0-1.2,0.5-1.2,1.2v28.3c0,0.6,0.5,1.2,1.2,1.2h302.2c0.6,0,1.2-0.5,1.2-1.2v-28.3    C485,212.95,484.5,212.45,483.8,212.45z"></path>
			<path d="M181.6,294.35h142.8c0.6,0,1.2-0.5,1.2-1.2v-28.3c0-0.6-0.5-1.2-1.2-1.2H181.6c-0.6,0-1.2,0.5-1.2,1.2v28.3    C180.5,293.75,181,294.35,181.6,294.35z"></path>
			<path d="M483.8,378.55H181.6c-0.6,0-1.2,0.5-1.2,1.2v28.3c0,0.6,0.5,1.2,1.2,1.2h302.2c0.6,0,1.2-0.5,1.2-1.2v-28.3    C485,379.05,484.5,378.55,483.8,378.55z"></path>
			<path d="M324.4,429.85H181.6c-0.6,0-1.2,0.5-1.2,1.2v28.3c0,0.6,0.5,1.2,1.2,1.2h142.8c0.6,0,1.2-0.5,1.2-1.2v-28.3    C325.6,430.35,325.1,429.85,324.4,429.85z"></path>
			<polygon points="53.4,86.55 27.3,60.25 0,87.45 26.2,113.65 53.3,140.95 80.5,113.85 143,51.75 115.9,24.45   "></polygon>	
		</symbol>

		<symbol id="pessoas" viewBox="0 0 512 512">
			<path d="M451.72,237.26c-17.422-8.71-50.087-8.811-51.469-8.811c-4.142,0-7.5,3.358-7.5,7.5c0,4.142,3.358,7.5,7.5,7.5    c8.429,0.001,32.902,1.299,44.761,7.228c1.077,0.539,2.221,0.793,3.348,0.793c2.751,0,5.4-1.52,6.714-4.147    C456.927,243.618,455.425,239.113,451.72,237.26z"></path>	
			<path d="M489.112,344.041l-30.975-8.85c-1.337-0.382-2.271-1.62-2.271-3.011v-10.339c2.52-1.746,4.924-3.7,7.171-5.881    c10.89-10.568,16.887-24.743,16.887-39.915v-14.267l2.995-5.989c3.287-6.575,5.024-13.936,5.024-21.286v-38.65    c0-4.142-3.358-7.5-7.5-7.5H408.27c-26.244,0-47.596,21.352-47.596,47.596v0.447c0,6.112,1.445,12.233,4.178,17.699l3.841,7.682    v12.25c0,19.414,9.567,36.833,24.058,47.315l0.002,10.836c0,1.671,0,2.363-6.193,4.133l-15.114,4.318l-43.721-15.898    c0.157-2.063-0.539-4.161-2.044-5.742l-13.971-14.678v-24.64c1.477-1.217,2.933-2.467,4.344-3.789    c17.625-16.52,27.733-39.844,27.733-63.991v-19.678c5.322-11.581,8.019-23.836,8.019-36.457v-80.19c0-4.142-3.358-7.5-7.5-7.5    H232.037c-39.51,0-71.653,32.144-71.653,71.653v16.039c0,12.621,2.697,24.876,8.019,36.457v16.931    c0,28.036,12.466,53.294,32.077,69.946v25.22l-13.971,14.678c-1.505,1.581-2.201,3.679-2.044,5.742l-46.145,16.779    c-3.344,1.216-6.451,2.863-9.272,4.858l-7.246-3.623c21.57-9.389,28.403-22.594,28.731-23.25c1.056-2.111,1.056-4.597,0-6.708    c-5.407-10.814-6.062-30.635-6.588-46.561c-0.175-5.302-0.341-10.311-0.658-14.771c-2.557-35.974-29.905-63.103-63.615-63.103    s-61.059,27.128-63.615,63.103c-0.317,4.461-0.483,9.47-0.658,14.773c-0.526,15.925-1.182,35.744-6.588,46.558    c-1.056,2.111-1.056,4.597,0,6.708c0.328,0.656,7.147,13.834,28.76,23.234l-20.127,10.063C6.684,358.176,0,368.991,0,381.02    v55.409c0,4.142,3.358,7.5,7.5,7.5s7.5-3.358,7.5-7.5V381.02c0-6.312,3.507-11.987,9.152-14.81l25.063-12.531l8.718,8.285    c6.096,5.793,13.916,8.688,21.739,8.688c7.821,0,15.645-2.897,21.739-8.688l8.717-8.284l8.172,4.086    c-3.848,6.157-6.032,13.377-6.032,20.94v57.725c0,4.142,3.358,7.5,7.5,7.5c4.142,0,7.5-3.358,7.5-7.5v-57.725    c0-10.296,6.501-19.578,16.178-23.097l48.652-17.691l20.253,30.381c2.589,3.884,6.738,6.375,11.383,6.835    c0.518,0.051,1.033,0.076,1.547,0.076c4.098,0,8.023-1.613,10.957-4.546l12.356-12.356v78.124c0,4.142,3.358,7.5,7.5,7.5    c4.142,0,7.5-3.358,7.5-7.5v-78.124l12.356,12.356c2.933,2.934,6.858,4.547,10.957,4.547c0.513,0,1.029-0.025,1.546-0.076    c4.646-0.46,8.795-2.951,11.384-6.835l20.254-30.38l48.651,17.691c9.676,3.519,16.178,12.801,16.178,23.097v57.725    c0,4.142,3.358,7.5,7.5,7.5c4.142,0,7.5-3.358,7.5-7.5v-57.725c0-10.428-4.143-20.208-11.093-27.441l1.853-0.529    c1.869-0.534,4.419-1.265,6.979-2.52l19.149,19.149v69.066c0,4.142,3.358,7.5,7.5,7.5c4.142,0,7.5-3.358,7.5-7.5v-69.066    l19.016-19.016c1.011,0.514,2.073,0.948,3.191,1.267l30.976,8.85c7.07,2.02,12.009,8.567,12.009,15.921v62.044    c0,4.142,3.358,7.5,7.5,7.5c4.142,0,7.5-3.358,7.5-7.5v-62.044C512,360.371,502.588,347.892,489.112,344.041z M48.115,330.794    c-14.029-5.048-21.066-11.778-24.07-15.453c2.048-5.354,3.376-11.486,4.275-17.959c4.136,9.917,11.063,18.383,19.795,24.423    V330.794z M91.08,351.092c-6.397,6.078-16.418,6.077-22.813-0.001l-6.975-6.628c1.177-2.205,1.824-4.705,1.824-7.324v-7.994    c5.232,1.635,10.794,2.517,16.558,2.517c5.757,0,11.316-0.886,16.557-2.512l-0.001,7.988c0,2.62,0.646,5.121,1.824,7.327    L91.08,351.092z M79.676,316.662c-22.396,0-40.615-18.22-40.615-40.615c0-4.142-3.358-7.5-7.5-7.5c-0.42,0-0.83,0.043-1.231,0.11    c0.022-0.645,0.043-1.291,0.065-1.93c0.167-5.157,0.328-10.028,0.625-14.206c0.958-13.476,6.343-25.894,15.163-34.968    c8.899-9.156,20.793-14.198,33.491-14.198s24.591,5.042,33.491,14.198c8.82,9.074,14.205,21.492,15.163,34.968    c0.296,4.177,0.458,9.047,0.628,14.203c0.015,0.443,0.03,0.892,0.045,1.338c-8.16-12.572-20.762-21.837-37.045-27.069    c-15.043-4.833-27.981-4.534-28.527-4.52c-1.964,0.055-3.828,0.877-5.191,2.291l-13.532,14.034    c-2.875,2.982-2.789,7.73,0.193,10.605s7.73,2.788,10.605-0.193l11.26-11.677c9.697,0.474,40.894,4.102,53.027,30.819    C116.738,302.04,99.816,316.662,79.676,316.662z M111.229,330.819l0.001-8.945c8.725-6.007,15.662-14.457,19.801-24.449    c0.899,6.458,2.226,12.576,4.27,17.918C132.314,318.983,125.244,325.773,111.229,330.819z M183.403,209.145v-18.608    c0-1.129-0.255-2.244-0.746-3.261c-4.826-9.994-7.273-20.598-7.273-31.518V139.72c0-31.239,25.415-56.653,56.653-56.653h104.769    v72.692c0,10.92-2.447,21.524-7.273,31.518c-0.491,1.017-0.746,2.132-0.746,3.261v21.355c0,20.311-8.165,39.15-22.991,53.047    c-1.851,1.734-3.772,3.36-5.758,4.875c-0.044,0.03-0.086,0.063-0.129,0.094c-13.889,10.545-30.901,15.67-48.667,14.519    C213.201,281.965,183.403,248.897,183.403,209.145z M225.632,360.056c-0.052,0.052-0.173,0.175-0.418,0.149    c-0.244-0.024-0.34-0.167-0.381-0.229l-23.325-34.988l7.506-7.887l35.385,24.187L225.632,360.056z M256.095,331.113    l-40.615-27.762v-14c10.509,5.681,22.276,9.234,34.791,10.044c1.977,0.128,3.942,0.191,5.901,0.191    c14.341,0,28.143-3.428,40.538-9.935v13.7L256.095,331.113z M287.357,359.978c-0.041,0.062-0.137,0.205-0.381,0.229    c-0.245,0.031-0.365-0.098-0.418-0.149l-18.767-18.767l35.385-24.188l7.507,7.887L287.357,359.978z M424.308,353.65l-17.02-17.019    c0.297-1.349,0.465-2.826,0.464-4.455l-0.001-3.165c4.723,1.55,9.701,2.47,14.852,2.624c0.578,0.018,1.151,0.026,1.727,0.026    c5.692,0,11.248-0.86,16.536-2.501v3.02c0,1.496,0.188,2.962,0.542,4.371L424.308,353.65z M452.591,305.196    c-7.949,7.714-18.45,11.788-29.537,11.446c-21.704-0.651-39.361-19.768-39.361-42.613v-14.021c0-1.165-0.271-2.313-0.792-3.354    l-4.633-9.266c-1.697-3.395-2.594-7.195-2.594-10.991v-0.447c0-17.974,14.623-32.596,32.596-32.596h64.673v31.15    c0,5.034-1.19,10.075-3.441,14.578l-3.786,7.572c-0.521,1.042-0.792,2.189-0.792,3.354v16.038    C464.924,287.126,460.544,297.478,452.591,305.196z"></path>	
			<path d="M472.423,380.814c-4.142,0-7.5,3.358-7.5,7.5v48.115c0,4.142,3.358,7.5,7.5,7.5c4.142,0,7.5-3.358,7.5-7.5v-48.115    C479.923,384.173,476.565,380.814,472.423,380.814z"></path>	
			<path d="M39.577,390.728c-4.142,0-7.5,3.358-7.5,7.5v38.201c0,4.142,3.358,7.5,7.5,7.5c4.142,0,7.5-3.358,7.5-7.5v-38.201    C47.077,394.087,43.719,390.728,39.577,390.728z"></path><path d="M317.532,158.475c-28.366-28.366-87.715-22.943-111.917-19.295c-7.623,1.149-13.155,7.6-13.155,15.339v17.278    c0,4.142,3.358,7.5,7.5,7.5c4.142,0,7.5-3.358,7.5-7.5v-17.279c0-0.255,0.168-0.473,0.392-0.507    c9.667-1.457,28.85-3.705,48.725-2.38c23.388,1.557,40.328,7.428,50.349,17.45c2.929,2.929,7.678,2.929,10.606,0    C320.461,166.152,320.461,161.403,317.532,158.475z"></path><path d="M167.884,396.853c-4.142,0-7.5,3.358-7.5,7.5v32.077c0,4.142,3.358,7.5,7.5,7.5c4.142,0,7.5-3.358,7.5-7.5v-32.077    C175.384,400.212,172.026,396.853,167.884,396.853z"></path><path d="M344.306,396.853c-4.142,0-7.5,3.358-7.5,7.5v32.077c0,4.142,3.358,7.5,7.5,7.5c4.142,0,7.5-3.358,7.5-7.5v-32.077    C351.806,400.212,348.448,396.853,344.306,396.853z"></path>
		</symbol>

		<symbol id="tempo" viewBox="0 0 203.543 203.543">
		    <path d="m194.139,11.918h-39.315v-5.918c0-3.313-2.687-6-6-6s-6,2.687-6,6v5.918h-35.053v-5.918c0-3.313-2.687-6-6-6s-6,2.687-6,6v5.918h-33.563v-5.918c0-3.313-2.687-6-6-6s-6,2.687-6,6v5.918h-40.804c-3.313,0-6,2.687-6,6v135.572c0,3.313 2.687,6 6,6h36.826c5.901,25.214 28.555,44.053 55.541,44.053s49.64-18.84 55.541-44.053h36.826c3.313,0 6-2.687 6-6v-135.572c0.001-3.313-2.685-6-5.999-6zm-143.931,12v5.422c0,3.313 2.687,6 6,6s6-2.687 6-6v-5.422h33.563v5.422c0,3.313 2.687,6 6,6s6-2.687 6-6v-5.422h35.053v5.422c0,3.313 2.687,6 6,6s6-2.687 6-6v-5.422h33.315v24.536h-172.735v-24.536h34.804zm51.563,167.625c-24.842,0-45.053-20.211-45.053-45.053s20.211-45.053 45.053-45.053 45.053,20.21 45.053,45.053-20.21,45.053-45.053,45.053zm57.028-44.053c0.006-0.334 0.025-0.665 0.025-1 0-31.459-25.594-57.053-57.053-57.053s-57.053,25.594-57.053,57.053c0,0.335 0.02,0.666 0.025,1h-29.34v-87.035h172.735v87.035h-29.339z"></path>
		    <path d="m107.771,148.004v-29.026c0-3.313-2.687-6-6-6s-6,2.687-6,6v31.512c0,1.591 0.632,3.117 1.757,4.243l13.79,13.791c1.172,1.171 2.707,1.757 4.243,1.757 1.535,0 3.071-0.586 4.243-1.757 2.343-2.343 2.343-6.142 0-8.485l-12.033-12.035z"></path>
		</symbol>

		<symbol id="financeiro" viewBox="0 0 512 512">
			<path d="M498.791,161.127c-17.545-17.546-46.094-17.545-63.645,0.004c-5.398,5.403-39.863,39.896-45.128,45.166V87.426    c0-12.02-4.681-23.32-13.181-31.819L334.412,13.18C325.913,4.68,314.612,0,302.592,0H45.018c-24.813,0-45,20.187-45,45v422    c0,24.813,20.187,45,45,45h300c24.813,0,45-20.187,45-45V333.631L498.79,224.767C516.377,207.181,516.381,178.715,498.791,161.127    z M300.019,30c2.834,0,8.295-0.491,13.18,4.393l42.426,42.427c4.76,4.761,4.394,9.978,4.394,13.18h-60V30z M360.018,467    c0,8.271-6.728,15-15,15h-300c-8.271,0-15-6.729-15-15V45c0-8.271,6.729-15,15-15h225v75c0,8.284,6.716,15,15,15h75v116.323    c0,0-44.254,44.292-44.256,44.293l-21.203,21.204c-1.646,1.646-2.888,3.654-3.624,5.863l-21.214,63.64    c-1.797,5.39-0.394,11.333,3.624,15.35c4.023,4.023,9.968,5.419,15.35,3.624l63.64-21.213c2.209-0.736,4.217-1.977,5.863-3.624    l1.82-1.82V467z M326.378,312.427l21.213,21.213l-8.103,8.103l-31.819,10.606l10.606-31.82L326.378,312.427z M368.8,312.422    l-21.213-21.213c11.296-11.305,61.465-61.517,72.105-72.166l21.213,21.213L368.8,312.422z M477.573,203.558l-15.463,15.476    l-21.213-21.213l15.468-15.481c5.852-5.849,15.366-5.848,21.214,0C483.426,188.19,483.457,197.673,477.573,203.558z"></path>
			<path d="M285.018,150h-210c-8.284,0-15,6.716-15,15s6.716,15,15,15h210c8.284,0,15-6.716,15-15S293.302,150,285.018,150z"></path>
			<path d="M225.018,210h-150c-8.284,0-15,6.716-15,15s6.716,15,15,15h150c8.284,0,15-6.716,15-15S233.302,210,225.018,210z"></path>
			<path d="M225.018,270h-150c-8.284,0-15,6.716-15,15s6.716,15,15,15h150c8.284,0,15-6.716,15-15S233.302,270,225.018,270z"></path>
			<path d="M225.018,330h-150c-8.284,0-15,6.716-15,15s6.716,15,15,15h150c8.284,0,15-6.716,15-15S233.302,330,225.018,330z"></path>
			<path d="M285.018,422h-90c-8.284,0-15,6.716-15,15s6.716,15,15,15h90c8.284,0,15-6.716,15-15S293.302,422,285.018,422z"></path>
		</symbol>



<!-- Generator: Adobe Illustrator 22.0.1, SVG Export Plug-In . SVG Version: 6.00 Build 0)  -->
			<symbol id="logo" viewBox="0 0 427 157.5">
			<style type="text/css">
				.st0{opacity:0.93;fill:#49A5F5;}
				.st1{fill:#FFFFFF;}
			</style>
			<image style="display:none;overflow:visible;opacity:0.93;" width="462" height="361" xlink:href="67DCFA95.jpg"  transform="matrix(0.9999 0 0 0.9999 -25.9711 -5.9774)">
			</image>
			<circle class="st0" cx="201.5" cy="21" r="16"/>
			<path class="st0" d="M145.3,57.3c0,0,13.5-16.3,61-15.8c38,0,46.5,13.8,46.5,13.8s-32.8,0-32.8,17.5s6.5,27.5,6.5,27.5
				s-6.3-7-16.3-6.5C192.8,94,173,134.8,165,135c0,0,29-48.8,27-65.3S173.3,52.3,145.3,57.3z"/>
			<g>
				<path class="st1" d="M43.8,123.6c-4.2,2.4-10.9,4.4-18.3,4.4c-14.7,0-21.1-10-21.1-22.3c0-16.7,12.4-35.6,30.3-35.6
					c10.6,0,16.3,6.3,16.3,14.2c0,14.6-16.4,18.4-36.9,18c-0.5,2.4-0.1,7.6,1.1,10.6c2.2,5,6.6,7.5,12.3,7.5c6.6,0,11.5-2,14.9-3.8
					L43.8,123.6z M33.2,77.5c-9.1,0-15.9,8.8-18.2,17.5c15,0.2,26.7-1.8,26.7-10.5C41.7,80,38.2,77.5,33.2,77.5z"/>
				<path class="st1" d="M85.6,126.8c0-3.3,0.5-8.6,1.2-14.3h-0.2c-6,11.5-13.7,15.6-21.5,15.6c-9.8,0-16-7.8-16-18.3
					c0-19.3,14.2-39.7,38.4-39.7c5.3,0,11.1,0.9,15,2.1l-5.7,28.9c-1.8,9.7-2.6,19.6-2.3,25.7H85.6z M91.7,78.4
					c-1.3-0.4-3.4-0.8-6.6-0.8C70.8,77.6,59.1,92.6,59,108c0,6.2,2.1,12.2,9.5,12.2c8,0,17.3-10.3,20.1-25.1L91.7,78.4z"/>
				<path class="st1" d="M102.5,117.2c2.6,1.6,7.4,3.5,11.9,3.5c6.4,0,10.6-4.1,10.6-9.1c0-4.3-2-7-7.7-10.2c-6.4-3.6-10-8.5-10-14.1
					c0-9.7,8.4-17.1,20.1-17.1c5,0,9.5,1.3,11.5,2.8l-2.7,7.2c-1.9-1.1-5.4-2.5-9.6-2.5c-5.8,0-9.9,3.6-9.9,8.3c0,4.1,2.7,6.6,7.6,9.3
					c6.2,3.5,10.4,8.3,10.4,14.6c0,11.7-9.5,18.3-21.2,18.3c-6,0-11.3-1.9-13.8-3.8L102.5,117.2z"/>
				<path class="st1" d="M150,71.3l5.5,29.8c1.2,6.4,2,10.5,2.5,14.6h0.3c1.5-3.6,3.1-7.4,5.9-13.6l14.2-30.9h10.1l-20.8,42.2
					c-6,12-11.6,21.8-19.1,29.2c-6.2,6.2-13,8.9-16.1,9.6l-2.3-8.2c2.4-0.8,6.4-2.4,10.2-5.3c3.8-2.9,7.8-7.4,10.7-12.8
					c0.5-0.9,0.4-1.6,0.3-2.5l-11.1-52.1H150z"/>
			</g>
			<g>
				<path class="st1" d="M255.6,56.4l-2.9,14.9H266l-1.5,7.4h-13.3l-5.1,27c-0.6,3.1-1.1,6-1.1,8.9c0,3.3,1.6,5.4,5.3,5.4
					c1.7,0,3.2-0.1,4.5-0.4l-0.5,7.5c-1.7,0.6-4.6,1-7.4,1c-8.4,0-11.7-5.1-11.7-10.8c0-3.2,0.4-6.4,1.2-10.4l5.4-28.1H234l1.4-7.4h8
					l2.3-12.5L255.6,56.4z"/>
				<path class="st1" d="M312.6,93.1c0,17.1-12.2,34.9-30.8,34.9c-13.9,0-21.7-10.3-21.7-22.8c0-18.3,12.7-35.2,30.8-35.2
					C305.8,70.1,312.6,81.4,312.6,93.1z M269.9,104.9c0,9,5,15.6,13.2,15.6c11.2,0,19.7-14.5,19.7-27.4c0-6.5-3-15.5-12.9-15.5
					C277.8,77.6,269.9,92.2,269.9,104.9z"/>
				<path class="st1" d="M366,93.1c0,17.1-12.2,34.9-30.8,34.9c-13.9,0-21.7-10.3-21.7-22.8c0-18.3,12.7-35.2,30.8-35.2
					C359.2,70.1,366,81.4,366,93.1z M323.3,104.9c0,9,5,15.6,13.2,15.6c11.2,0,19.7-14.5,19.7-27.4c0-6.5-3-15.5-12.9-15.5
					C331.2,77.6,323.3,92.2,323.3,104.9z"/>
				<path class="st1" d="M365.8,126.8l15.5-81.5h9.5l-15.6,81.5H365.8z"/>
				<path class="st1" d="M385.6,117.2c2.6,1.6,7.4,3.5,11.9,3.5c6.4,0,10.6-4.1,10.6-9.1c0-4.3-1.9-7-7.7-10.2c-6.4-3.6-10-8.5-10-14.1
					c0-9.7,8.4-17.1,20.1-17.1c5,0,9.5,1.3,11.5,2.8l-2.7,7.2c-1.9-1.1-5.4-2.5-9.6-2.5c-5.8,0-9.9,3.6-9.9,8.3c0,4.1,2.7,6.6,7.6,9.3
					c6.2,3.5,10.4,8.3,10.4,14.6c0,11.7-9.5,18.3-21.2,18.3c-6,0-11.3-1.9-13.8-3.8L385.6,117.2z"/>
			</g>
			</symbol>


		<!-- news icons -->

		<symbol id="dash-projects" xmlns="http://www.w3.org/2000/svg" viewBox="0 0 496 496">
			<path d="m456 32h-416c-4.425781 0-8 3.585938-8 8v224c0 4.425781 3.574219 8 8 8h416c4.425781 0 8-3.574219 8-8v-224c0-4.414062-3.574219-8-8-8zm-72 96h-272v-48h272zm-272 16h272v112h-272zm336 112h-48v-184c0-4.414062-3.574219-8-8-8h-288c-4.425781 0-8 3.585938-8 8v184h-48v-208h400zm0 0"></path><path d="m472 304c13.230469 0 24-10.769531 24-24v-256c0-13.230469-10.769531-24-24-24h-448c-13.230469 0-24 10.769531-24 24v256c0 13.230469 10.769531 24 24 24h192v16h-32c-22.054688 0-40 17.945312-40 40 0 4.425781 3.574219 8 8 8h192c4.425781 0 8-3.574219 8-8 0-22.054688-17.945312-40-40-40h-32v-16h136v8c0 13.230469 10.769531 24 24 24h32c4.414062 0 8 3.585938 8 8s-3.585938 8-8 8h-80c-13.230469 0-24 10.769531-24 24v8h-328c-4.425781 0-8 3.574219-8 8v96c0 4.425781 3.574219 8 8 8h416c4.425781 0 8-3.574219 8-8v-96c0-4.425781-3.574219-8-8-8h-72v-8c0-4.414062 3.585938-8 8-8h80c13.230469 0 24-10.769531 24-24s-10.769531-24-24-24h-32c-4.414062 0-8-3.585938-8-8v-8zm-24 176h-400v-80h400zm-432-200v-256c0-4.40625 3.585938-8 8-8h448c4.414062 0 8 3.59375 8 8v256c0 4.414062-3.585938 8-8 8h-448c-4.414062 0-8-3.585938-8-8zm318.632812 72h-173.265624c3.304687-9.3125 12.199218-16 22.632812-16h128c10.433594 0 19.328125 6.6875 22.632812 16zm-70.632812-32h-32v-16h32zm0 0"></path><path d="m416 416h16v16h-16zm0 0"></path><path d="m416 448h16v16h-16zm0 0"></path><path d="m384 416h16v16h-16zm0 0"></path><path d="m384 448h16v16h-16zm0 0"></path><path d="m352 416h16v16h-16zm0 0"></path><path d="m352 448h16v16h-16zm0 0"></path><path d="m128 416h16v16h-16zm0 0"></path><path d="m128 448h112v16h-112zm0 0"></path><path d="m96 416h16v16h-16zm0 0"></path><path d="m96 448h16v16h-16zm0 0"></path><path d="m64 416h16v16h-16zm0 0"></path><path d="m64 448h16v16h-16zm0 0"></path><path d="m224 416h16v16h-16zm0 0"></path><path d="m192 416h16v16h-16zm0 0"></path><path d="m288 416h16v16h-16zm0 0"></path><path d="m288 448h16v16h-16zm0 0"></path><path d="m256 416h16v16h-16zm0 0"></path><path d="m256 448h16v16h-16zm0 0"></path><path d="m160 416h16v16h-16zm0 0"></path><path d="m128 96h16v16h-16zm0 0"></path><path d="m160 96h16v16h-16zm0 0"></path><path d="m192 96h16v16h-16zm0 0"></path><path d="m224 96h144v16h-144zm0 0"></path><path d="m162.34375 162.34375-32 32c-3.128906 3.128906-3.128906 8.183594 0 11.3125l32 32 11.3125-11.3125-26.34375-26.34375 26.34375-26.34375zm0 0"></path><path d="m269.65625 194.34375-32-32-11.3125 11.3125 26.34375 26.34375-26.34375 26.34375 11.3125 11.3125 32-32c3.128906-3.128906 3.128906-8.183594 0-11.3125zm0 0"></path><path d="m176.566406 237.039062 32.007813-79.992187 14.859375 5.945313-32.007813 79.992187zm0 0"></path><path d="m288 160h16v16h-16zm0 0"></path><path d="m320 160h32v16h-32zm0 0"></path><path d="m288 192h32v16h-32zm0 0"></path><path d="m336 192h16v16h-16zm0 0"></path><path d="m352 224h16v16h-16zm0 0"></path><path d="m320 224h16v16h-16zm0 0"></path><path d="m272 224h32v16h-32zm0 0"></path>
		</symbol>

		<symbol id="dash-tasks" xmlns="http://www.w3.org/2000/svg" xmlns:xlink="http://www.w3.org/1999/xlink" version="1.1" id="Layer_1" x="0px" y="0px" viewBox="0 0 512 512" style="enable-background:new 0 0 512 512;" xml:space="preserve">
			<path d="M136.381,56.057h89.156c4.465,0,8.084-3.618,8.084-8.084c0-4.466-3.62-8.084-8.084-8.084h-89.156     c-4.465,0-8.084,3.618-8.084,8.084C128.296,52.439,131.916,56.057,136.381,56.057z"></path>
			<path d="M136.381,91.735h178.312c4.466,0,8.084-3.619,8.084-8.084s-3.619-8.084-8.084-8.084H136.381     c-4.465,0-8.084,3.619-8.084,8.084S131.916,91.735,136.381,91.735z"></path>
			<path d="M136.381,202.885h89.156c4.465,0,8.084-3.618,8.084-8.084c0-4.466-3.62-8.084-8.084-8.084h-89.156     c-4.465,0-8.084,3.618-8.084,8.084C128.296,199.266,131.916,202.885,136.381,202.885z"></path>
			<path d="M136.381,238.565H312.73c4.466,0,8.084-3.618,8.084-8.084c0-4.466-3.619-8.084-8.084-8.084H136.381     c-4.465,0-8.084,3.619-8.084,8.084C128.296,234.945,131.916,238.565,136.381,238.565z"></path>
			<path d="M136.381,349.715h89.156c4.465,0,8.084-3.618,8.084-8.084c0-4.466-3.62-8.084-8.084-8.084h-89.156     c-4.465,0-8.084,3.618-8.084,8.084C128.296,346.096,131.916,349.715,136.381,349.715z"></path>
			<path d="M311.465,369.226H136.381c-4.465,0-8.084,3.618-8.084,8.084c0,4.465,3.62,8.084,8.084,8.084h175.085     c4.466,0,8.084-3.62,8.084-8.084C319.549,372.846,315.931,369.226,311.465,369.226z"></path>
			<path d="M473.678,404.818l-46.964-18.832v-10.313c12.937-7.034,22.75-19.096,26.841-33.537     c15.697-0.082,28.443-12.871,28.443-28.586c0-9.445-4.606-17.831-11.689-23.04v-21.467c0-39.954-32.505-72.46-72.459-72.46     h-5.365c-5.991,0-11.808,0.744-17.379,2.121v-43.789c0-4.466-3.618-8.084-8.084-8.084h-24.01c-4.466,0-8.084,3.619-8.084,8.084     s3.618,8.084,8.084,8.084h15.927v41.848c-21.215,11.131-36.266,32.46-38.588,57.438H16.168v-99.286h299.785     c4.466,0,8.084-3.619,8.084-8.084s-3.618-8.084-8.084-8.084H8.084c-4.465,0-8.084,3.619-8.084,8.084v115.454     c0,4.466,3.62,8.084,8.084,8.084h311.941v11.972c-1.333,0.97-2.579,2.053-3.725,3.235H8.084c-4.465,0-8.084,3.618-8.084,8.084     v115.454c0,4.466,3.62,8.084,8.084,8.084h281.189c-6.831,9.393-11.941,22.051-11.941,38.424v40.197     c0,4.465,3.619,8.094,8.084,8.094h30.539c4.466,0,8.084-3.618,8.084-8.084c0-4.465-3.618-8.084-8.084-8.084h-22.455v-32.122     c0-33.618,26.456-43.267,27.536-43.644c0.125-0.042,0.25-0.087,0.372-0.136l44.254-17.329c0.201,0.248,0.414,0.49,0.649,0.72     l23.214,22.609c1.51,1.471,3.534,2.293,5.64,2.293c0.042,0,0.085,0,0.127-0.001c2.151-0.033,4.201-0.924,5.693-2.473     l22.704-23.554l44.171,17.713c0.112,0.045,0.273,0.104,0.386,0.144c1.126,0.393,27.585,10.041,27.585,43.66v32.122h-66.491     h-57.389h-11.967h-10.043h-8.12c-4.466,0-8.084,3.62-8.084,8.084c0,4.466,3.618,8.084,8.084,8.084h8.12h10.043h11.967h57.389     h74.575c4.466,0,8.084-3.698,8.084-8.163v-40.128C512,427.524,487.073,409.431,473.678,404.818z M455.651,301.343     c5.781,1.061,10.179,6.127,10.179,12.208s-4.398,11.145-10.179,12.207V301.343z M336.192,269.044     c0.001-31.039,25.254-56.292,56.294-56.292h5.365c31.039,0,56.291,25.253,56.291,56.292v13.202     c-0.011-0.015-0.023-0.028-0.032-0.043c-0.074-0.103-0.149-0.206-0.229-0.306c-0.077-0.096-0.156-0.188-0.238-0.279     c-0.093-0.107-0.186-0.211-0.285-0.314c-0.077-0.079-0.158-0.154-0.238-0.231c-0.11-0.104-0.22-0.206-0.336-0.305     c-0.081-0.068-0.165-0.131-0.248-0.197c-0.121-0.095-0.243-0.189-0.37-0.277c-0.092-0.064-0.186-0.122-0.281-0.181     c-0.123-0.079-0.247-0.157-0.375-0.229c-0.112-0.064-0.23-0.12-0.345-0.178c-0.115-0.057-0.23-0.115-0.347-0.167     c-0.141-0.063-0.287-0.115-0.431-0.169c-0.101-0.038-0.203-0.078-0.305-0.111c-0.163-0.054-0.331-0.097-0.497-0.14     c-0.075-0.021-0.148-0.045-0.224-0.064c-17.592-4.002-23.099-26.746-23.147-26.949c-0.702-3.099-3.153-5.499-6.266-6.135     c-3.111-0.641-6.309,0.607-8.17,3.182c-21.27,29.407-68.086,29.701-68.733,29.701c0,0-0.002,0-0.003,0c-0.011,0-0.021,0-0.03,0     c-0.278,0-0.554,0.015-0.825,0.042c-0.085,0.009-0.167,0.026-0.252,0.038c-0.184,0.024-0.369,0.047-0.549,0.084     c-0.115,0.024-0.227,0.059-0.342,0.087c-0.144,0.036-0.291,0.066-0.431,0.111c-0.131,0.041-0.257,0.094-0.385,0.141     c-0.117,0.043-0.239,0.081-0.355,0.129c-0.148,0.063-0.289,0.136-0.43,0.206c-0.092,0.045-0.185,0.084-0.275,0.133     c-0.146,0.079-0.282,0.168-0.423,0.255c-0.08,0.05-0.164,0.095-0.244,0.148c-0.13,0.088-0.253,0.186-0.379,0.282     c-0.081,0.061-0.165,0.118-0.244,0.182c-0.113,0.094-0.219,0.196-0.327,0.294c-0.083,0.075-0.169,0.147-0.248,0.225     c-0.1,0.1-0.191,0.207-0.285,0.312c-0.079,0.087-0.162,0.17-0.238,0.261c-0.084,0.102-0.16,0.211-0.239,0.319     c-0.076,0.101-0.156,0.198-0.227,0.303c-0.044,0.065-0.081,0.134-0.123,0.201V269.044z M334.929,301.286v24.529     c-5.958-0.913-10.541-6.056-10.541-12.263C324.387,307.342,328.97,302.199,334.929,301.286z M363.867,385.937l-48.183,18.87     c-2.681,0.921-5.828,2.393-9.145,4.432c-0.443-0.075-0.896-0.123-1.36-0.123H16.168V309.83H308.47     c-0.16,1.219-0.25,2.459-0.25,3.721c0,15.764,12.827,28.589,28.593,28.589c0.07,0,0.14-0.009,0.21-0.011     c4.09,14.444,13.905,26.508,26.844,33.543V385.937z M410.544,391.582c0,0.01,0,0.019,0,0.028v0.918l-15.562,16.147     l-14.947-14.559v-12.717c3.29,0.613,6.675,0.95,10.14,0.95h10.231c3.464,0,6.85-0.335,10.138-0.949V391.582z M400.408,366.18     h-10.231c-21.548,0-39.079-17.531-39.079-39.078v-32.491c14.111-1.216,43.491-6.065,64.431-25.453     c4.284,8.459,11.733,18.656,23.954,23.66v34.285C439.482,348.65,421.954,366.18,400.408,366.18z"></path>
			<path d="M82.589,47.106c4.465,0,8.084-3.618,8.084-8.084c0-4.466-3.62-8.084-8.084-8.084H41.813     c-4.465,0-8.084,3.618-8.084,8.084v53.581c0,4.466,3.62,8.084,8.084,8.084h56.211c4.465,0,8.084-3.619,8.084-8.084V78.146     c0-4.466-3.62-8.084-8.084-8.084c-4.465,0-8.084,3.619-8.084,8.084v6.371H49.897V47.106H82.589z"></path>
			<path d="M113.825,33.139c-3.25-3.062-8.366-2.91-11.428,0.339L75.544,61.97l-8.301-9.042c-3.019-3.291-8.134-3.507-11.422-0.489     c-3.289,3.02-3.507,8.134-0.489,11.422L69.51,79.306c1.519,1.655,3.657,2.603,5.903,2.618c0.018,0,0.036,0,0.053,0     c2.226,0,4.355-0.918,5.883-2.539l32.813-34.818C117.225,41.318,117.073,36.2,113.825,33.139z"></path>
			<path d="M82.589,193.935c4.465,0,8.084-3.618,8.084-8.084c0-4.466-3.62-8.084-8.084-8.084H41.813     c-4.465,0-8.084,3.618-8.084,8.084v53.581c0,4.466,3.62,8.084,8.084,8.084h56.211c4.465,0,8.084-3.618,8.084-8.084v-14.456     c0-4.466-3.62-8.084-8.084-8.084c-4.465,0-8.084,3.618-8.084,8.084v6.371H49.897v-37.413H82.589z"></path>
			<path d="M113.825,179.967c-3.25-3.062-8.366-2.91-11.428,0.34l-26.853,28.492l-8.301-9.042     c-3.019-3.292-8.134-3.507-11.422-0.489c-3.289,3.02-3.507,8.134-0.489,11.422l14.179,15.445     c1.519,1.655,3.657,2.603,5.903,2.618c0.018,0,0.036,0,0.053,0c2.226,0,4.355-0.918,5.883-2.539l32.813-34.818     C117.225,188.147,117.073,183.03,113.825,179.967z"></path>
			<path d="M98.024,363.723c-4.465,0-8.084,3.618-8.084,8.084v6.371H49.897v-37.413h32.693c4.465,0,8.084-3.62,8.084-8.084     c0-4.466-3.62-8.084-8.084-8.084H41.813c-4.465,0-8.084,3.618-8.084,8.084v53.581c0,4.466,3.62,8.084,8.084,8.084h56.211     c4.465,0,8.084-3.618,8.084-8.084v-14.456C106.108,367.341,102.488,363.723,98.024,363.723z"></path>
			<path d="M102.397,327.138L75.544,355.63l-8.301-9.042c-3.019-3.292-8.134-3.506-11.422-0.489     c-3.289,3.02-3.507,8.134-0.489,11.422l14.179,15.445c1.519,1.655,3.657,2.603,5.903,2.618c0.018,0,0.036,0,0.053,0     c2.226,0,4.355-0.918,5.883-2.539l32.813-34.818c3.062-3.249,2.91-8.366-0.338-11.428     C110.575,323.736,105.459,323.888,102.397,327.138z"></path>
			<path d="M8.084,131.625h358.939c4.466,0,8.084-3.618,8.084-8.084V8.084c0-4.466-3.618-8.084-8.084-8.084h-24.01     c-4.466,0-8.084,3.619-8.084,8.084s3.619,8.084,8.084,8.084h15.926v99.287H16.168V16.168h299.785     c4.466,0,8.084-3.619,8.084-8.084S320.419,0,315.954,0H8.084C3.62,0,0,3.62,0,8.084V123.54C0,128.005,3.62,131.625,8.084,131.625     z"></path>
			</symbol>



			<symbol id="dash-users" xmlns="http://www.w3.org/2000/svg" xmlns:xlink="http://www.w3.org/1999/xlink" version="1.1" id="Capa_1" x="0px" y="0px" viewBox="0 0 480 480" style="enable-background:new 0 0 480 480;" xml:space="preserve">
				<path d="M429.688,90.304l-40-40c-2.678-2.681-6.869-3.115-10.04-1.04L335.2,78.4l-47.928-20L279.92,6.864    C279.355,2.924,275.98-0.001,272,0h-64c-3.98-0.001-7.355,2.924-7.92,6.864L192.72,58.4l-47.88,20l-44.456-29.12    c-3.171-2.075-7.362-1.641-10.04,1.04l-40,40c-2.684,2.685-3.112,6.886-1.024,10.056l29.6,44.96L73.96,156.8l14.688,6.352    l6.68-15.424c1.073-2.478,0.823-5.33-0.664-7.584l-28.416-43.12L97.04,66.232l42.576,27.888c2.229,1.443,5.025,1.701,7.48,0.688    l56-23.448c2.586-1.096,4.408-3.467,4.8-6.248L214.936,16h50.128l7.016,49.136c0.392,2.781,2.214,5.152,4.8,6.248l56,23.432    c2.452,1.013,5.246,0.755,7.472-0.688l42.592-27.872l31.008,31.008l-20.8,35.2c-1.238,2.087-1.462,4.624-0.608,6.896l8.872,23.432    l14.968-5.664l-7.512-19.832l22.04-37.264C432.772,96.89,432.268,92.887,429.688,90.304z"></path>
				<path d="M325.656,306.344l-24-24c-1.5-1.5-3.534-2.344-5.656-2.344H184c-2.122,0-4.156,0.844-5.656,2.344l-24,24    c-1.5,1.5-2.344,3.534-2.344,5.656v160c0,4.418,3.582,8,8,8h160c4.418,0,8-3.582,8-8V312    C328,309.878,327.156,307.844,325.656,306.344z M267.312,296h25.376L264,324.688L251.312,312L267.312,296z M252.688,336    l-10.344,10.344c-1.505,1.497-2.349,3.533-2.344,5.656c-0.015-2.102-0.857-4.114-2.344-5.6L227.312,336L240,323.312L252.688,336z     M244.688,296L240,300.688L235.312,296H244.688z M212.688,296l16,16L216,324.688L187.312,296H212.688z M209,464h-41V315.312l8-8    l34.344,34.344l13.2,13.2L209,464z M225.144,464l14.784-110.944c0.048-0.337,0.072-0.676,0.072-1.016    c0.002,0.513,0.055,1.025,0.16,1.528L262.24,464H225.144z M312,464h-33.44l-21.872-109.368l12.968-12.976L304,307.312l8,8V464z"></path>
				<path d="M296,104h-72c-26.499,0.026-47.974,21.501-48,48v48c0.04,35.33,28.67,63.96,64,64c35.33-0.04,63.96-28.67,64-64v-88    C304,107.582,300.418,104,296,104z M288,200c0,26.51-21.49,48-48,48c-26.51,0-48-21.49-48-48v-32h64    c11.824-0.003,23.227-4.393,32-12.32V200z M256,152h-64c0-17.673,14.327-32,32-32h64C288,137.673,273.673,152,256,152z"></path>
				<path d="M477.656,338.344l-24-24c-1.5-1.5-3.534-2.344-5.656-2.344h-64c-2.122,0-4.156,0.844-5.656,2.344l-24,24    c-1.5,1.5-2.344,3.534-2.344,5.656v128c0,4.418,3.582,8,8,8h112c4.418,0,8-3.582,8-8V344    C480,341.878,479.156,339.844,477.656,338.344z M464,464h-40V344h-16v120h-40V347.312l16-16l18.344,18.344L408,344l5.656-5.656    L403.312,328h26.008l-10.808,10.168L424,344l5.488,5.832l19.072-17.96l15.44,15.44V464z"></path>
				<path d="M424,176h-15.736c-22.02,0.044-39.881,17.844-40,39.864l-0.128,40.056c-0.088,26.465,21.294,47.991,47.76,48.08    c0.053,0,0.107,0,0.16,0c26.457-0.031,47.9-21.463,47.944-47.92V216C463.974,193.92,446.08,176.026,424,176z M384.264,215.92    C384.307,202.799,394.88,192.144,408,192c0.001,13.152-10.584,23.855-23.736,24V215.92z M448,256.056    c-0.031,17.62-14.3,31.9-31.92,31.944c-17.629,0-31.92-14.291-31.92-31.92c0-0.027,0-0.053,0-0.08l0.08-24    c12.506-0.075,24.257-5.995,31.76-16c7.554,10.072,19.41,16,32,16V256.056z M424,192c13.255,0,24,10.745,24,24    C434.745,216,424,205.255,424,192z"></path>
				<path d="M125.656,338.344l-24-24c-1.5-1.5-3.534-2.344-5.656-2.344H32c-2.122,0-4.156,0.844-5.656,2.344l-24,24    C0.844,339.844,0,341.878,0,344v128c0,4.418,3.582,8,8,8h112c4.418,0,8-3.582,8-8V344    C128,341.878,127.156,339.844,125.656,338.344z M112,464H72V344H56v120H16V347.312l16-16l18.344,18.344L56,344l5.656-5.656    L51.312,328H77.32l-10.808,10.168L72,344l5.488,5.832l19.072-17.96l15.44,15.44V464z"></path>
				<path d="M72,176H56.264c-22.02,0.044-39.881,17.844-40,39.864l-0.128,40.056c-0.088,26.465,21.294,47.991,47.76,48.08    c0.053,0,0.107,0,0.16,0c26.457-0.031,47.9-21.463,47.944-47.92V216C111.974,193.92,94.08,176.026,72,176z M72,192    c10.134,0.042,19.15,6.445,22.528,16H80c-10.134-0.042-19.15-6.445-22.528-16H72z M40,198.464v1.464    c0.01,2.129-0.841,4.172-2.36,5.664c-1.04,1.012-2.347,1.706-3.768,2C35.181,204.116,37.279,200.992,40,198.464z M96,256.08    c-0.044,17.611-14.309,31.876-31.92,31.92c-17.629,0-31.92-14.291-31.92-31.92c0-0.027,0-0.053,0-0.08l0.104-32.064    c6.263-0.035,12.26-2.539,16.688-6.968c1.265-1.281,2.383-2.697,3.336-4.224C59.711,219.955,69.651,223.992,80,224h16V256.08z"></path>
			</symbol>

			<symbol id="dash-times" xmlns="http://www.w3.org/2000/svg" xmlns:xlink="http://www.w3.org/1999/xlink" version="1.1" id="Capa_1" x="0px" y="0px" viewBox="0 0 512 512" style="enable-background:new 0 0 512 512;" xml:space="preserve">
				<path d="M328,44c-77.196,0-140,62.804-140,140c0,4.537,0.225,9.022,0.649,13.449c-11.158-7.186-24.419-11.375-38.649-11.375    c-39.48,0-71.6,32.12-71.6,71.6v2.724v12.105v26.164c0,20.258,8.47,38.563,22.038,51.6H89.59c-49.4,0-89.59,40.19-89.59,89.59V502    c0,5.523,4.477,10,10,10h280c5.523,0,10-4.477,10-10v-62.143c0-49.4-40.19-89.59-89.59-89.59h-10.848    c13.568-13.037,22.038-31.342,22.038-51.6v-23.784C247.298,304.924,285.461,324,328,324c77.196,0,140-62.804,140-140    S405.196,44,328,44z M98.4,260.397v-2.723c0-28.453,23.148-51.6,51.6-51.6c27.551,0,50.128,21.707,51.531,48.915l-26.074-15.318    c-4.212-2.476-9.594-1.545-12.73,2.199c-10.988,13.112-27.102,20.632-44.209,20.632H98.4V260.397z M200.263,424.338    c1.645,0,3.293-0.405,4.79-1.222c3.212-1.752,5.21-5.119,5.21-8.778v-41.773c0-0.792-0.102-1.559-0.276-2.297h0.423    c38.372,0,69.59,31.218,69.59,69.59V492H20v-52.143c0-38.372,31.218-69.59,69.59-69.59h0.147v44.071    c0,3.659,1.998,7.025,5.21,8.778c3.211,1.753,7.125,1.612,10.201-0.368L140,400.325v21.713c0,5.523,4.477,10,10,10s10-4.477,10-10    v-21.713l34.852,22.423C196.496,423.806,198.377,424.338,200.263,424.338z M109.737,396.013v-25.746h80.801    c-0.174,0.739-0.276,1.505-0.276,2.297v23.449L155.41,373.59c-3.296-2.12-7.525-2.12-10.821,0L109.737,396.013z M201.6,298.667    c0,28.453-23.148,51.6-51.6,51.6c-28.452,0-51.6-23.147-51.6-51.6v-16.164h20.119c20.168,0,39.311-7.762,53.695-21.542    l29.386,17.265V298.667z M328,304c-66.168,0-120-53.832-120-120S261.832,64,328,64s120,53.832,120,120S394.168,304,328,304z"></path>
				<path d="M157.07,451.43c-1.86-1.86-4.44-2.93-7.07-2.93s-5.21,1.07-7.07,2.93s-2.93,4.44-2.93,7.07s1.07,5.21,2.93,7.07    c1.86,1.86,4.44,2.93,7.07,2.93s5.21-1.07,7.07-2.93s2.93-4.44,2.93-7.07S158.93,453.29,157.07,451.43z"></path>
				<path d="M249.5,438h-45c-5.523,0-10,4.477-10,10s4.477,10,10,10h45c5.523,0,10-4.477,10-10S255.023,438,249.5,438z"></path>
				<path d="M328,0c-43.848,0-86.317,15.682-119.585,44.156c-32.9,28.159-54.896,67.071-61.934,109.568    c-0.902,5.448,2.783,10.597,8.232,11.5c5.447,0.896,10.596-2.784,11.5-8.232C179.358,77.613,247.4,20,328,20    c90.43,0,164,73.57,164,164s-73.57,164-164,164c-5.523,0-10,4.477-10,10s4.477,10,10,10c101.458,0,184-82.542,184-184    S429.458,0,328,0z"></path><path d="M297.125,345.101c-0.033-0.007-0.1-0.02-0.141-0.027c-5.409-1.04-10.63,2.494-11.688,7.902    c-1.061,5.42,2.486,10.676,7.907,11.736c0.662,0.132,1.321,0.196,1.972,0.196c4.669,0,8.844-3.287,9.795-8.041    C306.053,351.452,302.541,346.184,297.125,345.101z"></path><path d="M381.905,130.259c-3.905-3.906-10.237-3.905-14.143,0l-39.598,39.598l-20.845-20.845c-3.905-3.905-10.237-3.905-14.143,0    c-3.906,3.905-3.905,10.237,0,14.143l27.918,27.916c1.953,1.953,4.512,2.929,7.071,2.929s5.119-0.976,7.071-2.929l46.669-46.669    C385.81,140.497,385.81,134.165,381.905,130.259z"></path><path d="M328,76.084c-5.523,0-10,4.477-10,10v7.084c0,5.523,4.477,10,10,10s10-4.477,10-10v-7.084    C338,80.561,333.523,76.084,328,76.084z"></path><path d="M328,264.832c-5.523,0-10,4.477-10,10v7.084c0,5.523,4.477,10,10,10s10-4.477,10-10v-7.084    C338,269.309,333.523,264.832,328,264.832z"></path><path d="M425.916,174h-7.084c-5.523,0-10,4.477-10,10s4.477,10,10,10h7.084c5.523,0,10-4.477,10-10S431.439,174,425.916,174z"></path>
				<path d="M237.168,174h-7.084c-5.523,0-10,4.477-10,10s4.477,10,10,10h7.084c5.523,0,10-4.477,10-10S242.691,174,237.168,174z"></path>
			</symbol>

    </defs>
</svg>